<svg width="100" height="100" viewBox="0 0 100 100" fill="none" xmlns="http://www.w3.org/2000/svg">
<path d="M8.07925 54.4163C5.64025 51.9772 5.64025 48.0228 8.07925 45.5837L45.5837 8.07925C48.0228 5.64025 51.9772 5.64025 54.4163 8.07925L91.9206 45.5837C94.3597 48.0228 94.3597 51.9772 91.9206 54.4163L54.4163 91.9206C51.9772 94.3597 48.0228 94.3597 45.5837 91.9206L8.07925 54.4163Z" fill="#EE513B"/>
<path d="M37.9653 15.8173L34.1675 19.6152L43.9766 29.4243C43.5797 30.2756 43.3581 31.225 43.3581 32.2263C43.3581 35.0688 45.1441 37.4941 47.655 38.4413V62.4369C45.1441 63.3841 43.3581 65.8094 43.3581 68.6519C43.3581 72.3194 46.3312 75.2925 49.9987 75.2925C53.6662 75.2925 56.6394 72.3194 56.6394 68.6519C56.6394 66.075 55.1716 63.8406 53.0262 62.74V38.4741L62.4028 47.8506C62.0253 48.6847 61.8153 49.6106 61.8153 50.5856C61.8153 54.2531 64.7884 57.2263 68.4559 57.2263C72.1234 57.2263 75.0966 54.2531 75.0966 50.5856C75.0966 46.9181 72.1234 43.945 68.4559 43.945C67.7431 43.945 67.0569 44.0572 66.4131 44.265L56.3428 34.1947C56.5356 33.5728 56.6394 32.9116 56.6394 32.2263C56.6394 28.5587 53.6662 25.5856 49.9987 25.5856C49.3134 25.5856 48.6525 25.6894 48.0303 25.8822L37.9653 15.8173Z" fill="white"/>
</svg>
