<svg width="100" height="100" viewBox="0 0 100 100" fill="none" xmlns="http://www.w3.org/2000/svg">
<path d="M68.0838 67.3625C71.5434 67.0103 74.1681 64.0781 74.0488 60.5591C73.9297 57.0406 70.9469 54.2256 67.3678 54.2256H67.1294C63.4306 54.3428 60.5678 57.3925 60.6872 61.0284C60.8066 62.7878 61.5222 64.3125 62.5959 65.3681C58.5397 73.2269 52.3359 78.9741 43.0306 83.7831C36.7075 87.0672 30.1462 88.2403 23.5848 87.4194C18.2162 86.7156 14.0407 84.37 11.4157 80.4987C7.59825 74.7515 7.24047 68.535 10.4617 62.3187C12.7285 57.8615 16.3071 54.5772 18.574 52.935C18.0968 51.4103 17.3808 48.83 17.0231 46.9534C-0.275642 59.2691 1.51403 75.9247 6.76331 83.7831C10.7001 89.6478 18.6933 93.2841 27.5216 93.2841C29.9075 93.2841 32.2934 93.049 34.6797 92.4631C49.9503 89.5306 61.5225 80.6162 68.0838 67.3625ZM89.0809 52.8181C80.0141 42.3791 66.6522 36.6319 51.3816 36.6319H49.4731C48.3994 34.5206 46.1325 33.1128 43.6272 33.1128H43.3884C39.6903 33.2303 36.8275 36.2797 36.9466 39.9159C37.0659 43.4347 40.0481 46.2497 43.6272 46.2497H43.8656C46.4903 46.1325 48.7572 44.4903 49.7116 42.2616H51.8587C60.9259 42.2616 69.5153 44.8419 77.2703 49.8856C83.235 53.7562 87.53 58.8 89.9159 64.8991C91.9441 69.8253 91.8247 74.6344 89.6772 78.7397C86.3369 84.9559 80.73 88.3575 73.3331 88.3575C68.5609 88.3575 64.0278 86.95 61.6416 85.8944C60.3294 87.0672 57.9431 88.9437 56.2728 90.1172C61.4031 92.4628 66.6522 93.7531 71.6628 93.7531C83.1156 93.7531 91.5862 87.5362 94.8075 81.32C98.2669 74.5169 98.0281 62.7878 89.0809 52.8181ZM28.4759 69.3559C28.5953 72.8747 31.5778 75.6894 35.1569 75.6894H35.3956C39.0937 75.5725 41.9569 72.5228 41.8375 68.8869C41.7184 65.3678 38.7356 62.5531 35.1569 62.5531H34.9184C34.6797 62.5531 34.3216 62.5531 34.0834 62.67C29.1919 54.6944 27.1638 46.015 27.8797 36.6316C28.3566 29.5939 30.7428 23.4946 34.9184 18.4509C38.3778 14.1111 45.0587 11.9999 49.5925 11.8829C62.2381 11.6481 67.6063 27.1306 67.9644 33.3472C69.5153 33.6991 72.14 34.5203 73.9297 35.1069C72.4978 16.1057 60.5678 6.25305 49.1153 6.25305C38.3778 6.25305 28.4759 13.8771 24.5388 25.1371C19.0512 40.1503 22.6301 54.5772 29.3109 65.9547C28.7147 66.7756 28.3566 68.0656 28.4759 69.3559Z" fill="#764ABC"/>
</svg>
