<svg width="58" height="42" viewBox="0 0 58 42" fill="none" xmlns="http://www.w3.org/2000/svg">
<path d="M36.0281 29.6094C36.7737 31.1237 37.9319 32.3966 39.3695 33.2812C40.807 34.1659 42.4653 34.6263 44.1531 34.6094C47.5594 34.6094 49.7375 32.9062 49.7375 30.5469C49.7375 27.7344 47.5 26.7281 43.75 25.0875L41.6938 24.2063C35.7563 21.6781 31.8188 18.5125 31.8188 11.8188C31.8188 5.65313 36.5063 0.956253 43.8594 0.956253C46.2397 0.784362 48.618 1.3171 50.6975 2.48802C52.777 3.65894 54.4658 5.4162 55.5531 7.54063L49.125 11.65C48.7063 10.5966 47.9773 9.69542 47.0347 9.06587C46.092 8.43633 44.9803 8.1082 43.8469 8.125C43.3524 8.0755 42.853 8.12955 42.3805 8.28371C41.9081 8.43786 41.4729 8.68875 41.1028 9.02037C40.7326 9.352 40.4357 9.75709 40.2307 10.2098C40.0258 10.6626 39.9174 11.1531 39.9125 11.65C39.9125 14.1156 41.4406 15.1156 44.9688 16.65L47.025 17.5313C54.0125 20.5281 57.9625 23.5813 57.9625 30.4469C57.9625 37.85 52.1469 41.9062 44.3375 41.9062C41.2947 42.1001 38.2608 41.4093 35.6019 39.9171C32.9431 38.4249 30.7728 36.1951 29.3531 33.4969L36.0281 29.6094ZM6.98126 30.3219C8.27188 32.6125 9.44688 34.55 12.2719 34.55C14.9719 34.55 16.6781 33.4937 16.6781 29.3844V1.425H24.9V29.4937C24.9 38.0062 19.9 41.8813 12.6219 41.8813C10.0492 42.0219 7.49423 41.3807 5.29277 40.0421C3.09131 38.7035 1.34643 36.7301 0.287506 34.3813L6.98126 30.3219Z" fill="black"/>
</svg>
